<svg width="23" height="23" viewBox="0 0 23 23" fill="none" xmlns="http://www.w3.org/2000/svg">
<circle cx="11.5" cy="11.5" r="11.5" fill="white"/>
<path d="M10.9303 10.9303V8.08312C10.9303 7.76862 11.1853 7.51367 11.4998 7.51367C11.8143 7.51367 12.0692 7.76862 12.0692 8.08312V10.9303H14.9164C15.2309 10.9303 15.4859 11.1853 15.4859 11.4998C15.4859 11.8143 15.2309 12.0692 14.9164 12.0692H12.0692V14.9164C12.0692 15.2309 11.8143 15.4859 11.4998 15.4859C11.1853 15.4859 10.9303 15.2309 10.9303 14.9164V12.0692H8.08312C7.76862 12.0692 7.51367 11.8143 7.51367 11.4998C7.51367 11.1853 7.76862 10.9303 8.08312 10.9303H10.9303Z" fill="black"/>
</svg>
