<svg width="22" height="22" viewBox="0 0 22 22" fill="none" xmlns="http://www.w3.org/2000/svg">
<g clip-path="url(#clip0_66_917)">
<path d="M12.8337 12.3752V7.3335C12.8337 6.36104 12.4474 5.4284 11.7597 4.74077C11.0721 4.05314 10.1395 3.66683 9.16699 3.66683C8.19453 3.66683 7.2619 4.05314 6.57427 4.74077C5.88663 5.4284 5.50033 6.36104 5.50033 7.3335V12.3752C5.50033 13.9554 6.12808 15.4709 7.24548 16.5883C8.36288 17.7057 9.87841 18.3335 11.4587 18.3335C13.0389 18.3335 14.5544 17.7057 15.6718 16.5883C16.7892 15.4709 17.417 13.9554 17.417 12.3752V3.66683H19.2503V12.3752C19.2503 14.4416 18.4294 16.4235 16.9682 17.8847C15.507 19.3459 13.5251 20.1668 11.4587 20.1668C9.39218 20.1668 7.41034 19.3459 5.94912 17.8847C4.4879 16.4235 3.66699 14.4416 3.66699 12.3752V7.3335C3.66699 5.87481 4.24645 4.47586 5.2779 3.44441C6.30936 2.41296 7.7083 1.8335 9.16699 1.8335C10.6257 1.8335 12.0246 2.41296 13.0561 3.44441C14.0875 4.47586 14.667 5.87481 14.667 7.3335V12.3752C14.667 13.2261 14.329 14.0421 13.7273 14.6438C13.1256 15.2455 12.3096 15.5835 11.4587 15.5835C10.6078 15.5835 9.7917 15.2455 9.19002 14.6438C8.58835 14.0421 8.25033 13.2261 8.25033 12.3752V7.3335H10.0837V12.3752C10.0837 12.7398 10.2285 13.0896 10.4864 13.3474C10.7442 13.6053 11.094 13.7502 11.4587 13.7502C11.8233 13.7502 12.1731 13.6053 12.4309 13.3474C12.6888 13.0896 12.8337 12.7398 12.8337 12.3752Z" fill="white"/>
</g>
<defs>
<clipPath id="clip0_66_917">
<rect width="22" height="22" fill="white"/>
</clipPath>
</defs>
</svg>
