<svg width="34" height="34" viewBox="0 0 34 34" fill="none" xmlns="http://www.w3.org/2000/svg">
<path d="M15.9561 7.29153L13.7137 5.6101C13.2723 5.27906 12.7355 5.1001 12.1837 5.1001H7.65039C5.30318 5.1001 3.40039 7.00289 3.40039 9.3501V11.0501H12.0206C12.2535 11.0501 12.4763 10.9545 12.6368 10.7855L15.9561 7.29153ZM17.9604 7.6501L13.8693 11.9564C13.3879 12.4632 12.7196 12.7501 12.0206 12.7501H3.40039V24.6501C3.40039 26.9973 5.30318 28.9001 7.65039 28.9001H16.3199C15.6681 27.6249 15.3004 26.1804 15.3004 24.6501C15.3004 19.4862 19.4865 15.3001 24.6504 15.3001C26.9107 15.3001 28.9839 16.1022 30.6004 17.4373V11.9001L30.5914 11.6207C30.4474 9.40372 28.6037 7.6501 26.3504 7.6501H17.9604ZM22.1177 23.8001C22.1969 21.882 22.541 20.1908 23.0352 18.9554C23.3191 18.2455 23.636 17.7282 23.9444 17.4021C24.2509 17.0778 24.4897 17.0001 24.6502 17.0001C24.8105 17.0001 25.0494 17.0778 25.3561 17.4021C25.6644 17.7282 25.9811 18.2455 26.2652 18.9554C26.7592 20.1908 27.1033 21.882 27.1827 23.8001H22.1177ZM21.4568 18.3241C21.5656 18.0522 21.6834 17.7913 21.8104 17.5444C19.2429 18.5716 17.362 20.9499 17.0468 23.8001H20.4164C20.4964 21.703 20.8706 19.7896 21.4568 18.3241ZM27.8435 18.3241C27.7349 18.0522 27.6171 17.7913 27.4899 17.5444C30.0574 18.5716 31.9385 20.9499 32.2535 23.8001H28.8841C28.804 21.703 28.4298 19.7896 27.8435 18.3241ZM28.8841 25.5001H32.2535C31.9385 28.3503 30.0574 30.7286 27.4899 31.7558C27.6171 31.5089 27.7349 31.248 27.8435 30.9761C28.4298 29.5106 28.804 27.5972 28.8841 25.5001ZM25.3561 31.898C25.0494 32.2224 24.8105 32.3001 24.6502 32.3001C24.4897 32.3001 24.2509 32.2224 23.9444 31.898C23.636 31.572 23.3191 31.0547 23.0352 30.3448C22.541 29.1094 22.1969 27.4182 22.1177 25.5001H27.1827C27.1033 27.4182 26.7592 29.1094 26.2652 30.3448C25.9811 31.0547 25.6644 31.572 25.3561 31.898ZM17.0468 25.5001C17.362 28.3503 19.2429 30.7286 21.8104 31.7558C21.6834 31.5089 21.5656 31.248 21.4568 30.9761C20.8706 29.5106 20.4964 27.5972 20.4164 25.5001H17.0468Z" fill="white"/>
</svg>
