<svg width="34" height="34" viewBox="0 0 34 34" fill="none" xmlns="http://www.w3.org/2000/svg">
<g clip-path="url(#clip0_78_122)">
<path d="M2.83301 7.74289C2.83301 7.34286 3.0714 6.98133 3.43909 6.82375L12.3234 3.0162C12.5937 2.90032 12.9014 2.90937 13.1645 3.04091L20.8349 6.87609C21.0979 7.00763 21.4056 7.01668 21.676 6.90082L30.1789 3.25708C30.2867 3.21087 30.4043 3.19215 30.5211 3.2026C30.6379 3.21304 30.7503 3.25233 30.8482 3.31693C30.9461 3.38152 31.0264 3.46942 31.0819 3.57271C31.1374 3.676 31.1664 3.79147 31.1663 3.90875V26.2574C31.1663 26.6575 30.9279 27.019 30.5603 27.1766L21.676 30.9841C21.4056 31.1 21.0979 31.091 20.8348 30.9594L13.1645 27.1242C12.9014 26.9927 12.5938 26.9836 12.3234 27.0995L3.82042 30.7432C3.71264 30.7895 3.59506 30.8082 3.47825 30.7977C3.36144 30.7873 3.24905 30.748 3.15117 30.6834C3.05329 30.6188 2.97298 30.5309 2.91745 30.4276C2.86192 30.3243 2.8329 30.2089 2.83301 30.0916V7.74289ZM19.8024 27.2754C20.4673 27.6079 21.2497 27.1244 21.2497 26.381V10.2429C21.2497 10.2066 21.2125 10.1822 21.1792 10.1965V10.1965C21.1655 10.2024 21.1499 10.202 21.1366 10.1953L14.1969 6.72492C13.532 6.39241 12.7497 6.87591 12.7497 7.61932V23.7574C12.7497 23.7937 12.7868 23.8182 12.8202 23.8038V23.8038C12.8339 23.7979 12.8494 23.7983 12.8628 23.805L19.8024 27.2754Z" fill="white"/>
</g>
<defs>
<clipPath id="clip0_78_122">
<rect width="34" height="34" fill="white"/>
</clipPath>
</defs>
</svg>
