<svg width="34" height="34" viewBox="0 0 34 34" fill="none" xmlns="http://www.w3.org/2000/svg">
<path fill-rule="evenodd" clip-rule="evenodd" d="M25.4935 14.2744C26.8867 14.3213 28 15.3405 28 16.591V27.6817C28 28.9621 26.8329 30 25.3932 30H9.60684C8.16712 30 7 28.9621 7 27.6817V16.591C7 15.3106 8.16712 14.2727 9.60684 14.2727H9.8525V10.9549C9.8525 7.1138 13.3539 4 17.673 4C21.9922 4 25.4935 7.1138 25.4935 10.9549V14.2744ZM22.8867 14.2727V10.9549C22.8867 8.39416 20.5525 6.31829 17.673 6.31829C14.7936 6.31829 12.4593 8.39416 12.4593 10.9549V14.2727H22.8867Z" fill="white"/>
</svg>
