<svg width="34" height="34" viewBox="0 0 34 34" fill="none" xmlns="http://www.w3.org/2000/svg">
<g clip-path="url(#clip0_78_118)">
<path d="M8.5625 8.90606L10.9688 7.87481C10.9688 7.53106 11.1062 6.77481 11.6562 6.49981C12.3438 6.15606 13.375 6.49981 15.4375 6.84356C17.5 7.18731 19.2188 7.53106 21.625 7.87481C24.0312 8.21856 24.7188 8.56231 26.7812 9.59356C28.8438 10.6248 28.1562 10.9686 28.5 11.9998C28.8438 13.0311 29.1875 13.0311 29.5312 15.0936C29.875 17.1561 29.875 16.4686 29.875 17.8436C29.875 19.2186 29.5312 19.2186 29.1875 20.5936C28.8438 21.9686 28.5 21.9686 28.1562 22.9998C27.8125 24.0311 26.4375 24.0311 26.0938 24.3748C25.75 24.7186 22.3125 25.0623 21.625 25.4061L19.5625 26.4373L19.2188 28.8436L17.8438 29.1873C17.3854 28.9581 16.1938 28.2936 15.0938 27.4686C13.7188 26.4373 14.0625 27.1248 13.375 26.4373C12.6875 25.7498 12.3438 26.0936 10.2812 24.7186C8.21875 23.3436 8.90625 23.3436 8.5625 22.9998C8.21875 22.6561 6.84375 21.2811 6.84375 20.5936C6.84375 19.9061 6.5 18.8748 6.15625 17.8436C5.8125 16.8123 5.8125 15.4373 5.8125 15.0936C5.8125 14.7498 6.15625 12.3436 6.5 11.9998C6.775 11.7248 7.98958 9.82272 8.5625 8.90606Z" fill="white"/>
<path d="M14.75 5.125H20.25C23.1674 5.125 25.9653 6.28393 28.0282 8.34683C30.0911 10.4097 31.25 13.2076 31.25 16.125C31.25 19.0424 30.0911 21.8403 28.0282 23.9032C25.9653 25.9661 23.1674 27.125 20.25 27.125V31.9375C13.375 29.1875 3.75 25.0625 3.75 16.125C3.75 13.2076 4.90893 10.4097 6.97183 8.34683C9.03473 6.28393 11.8326 5.125 14.75 5.125ZM17.5 24.375H20.25C21.3334 24.375 22.4062 24.1616 23.4071 23.747C24.4081 23.3324 25.3175 22.7247 26.0836 21.9586C26.8497 21.1925 27.4574 20.2831 27.872 19.2821C28.2866 18.2812 28.5 17.2084 28.5 16.125C28.5 15.0416 28.2866 13.9688 27.872 12.9679C27.4574 11.9669 26.8497 11.0575 26.0836 10.2914C25.3175 9.52529 24.4081 8.9176 23.4071 8.50299C22.4062 8.08839 21.3334 7.875 20.25 7.875H14.75C12.562 7.875 10.4635 8.74419 8.91637 10.2914C7.36919 11.8385 6.5 13.937 6.5 16.125C6.5 21.0887 9.88525 24.3282 17.5 27.785V24.375Z" fill="white"/>
<circle cx="10.9688" cy="16.4688" r="1.71875" fill="black"/>
<circle cx="17.8438" cy="16.4688" r="1.71875" fill="black"/>
<circle cx="24.7188" cy="16.4688" r="1.71875" fill="black"/>
</g>
<defs>
<clipPath id="clip0_78_118">
<rect width="33" height="33" fill="white" transform="translate(1 1)"/>
</clipPath>
</defs>
</svg>
