<svg width="34" height="34" viewBox="0 0 34 34" fill="none" xmlns="http://www.w3.org/2000/svg">
<path d="M18.5089 4.49302C18.0873 4.17471 17.5526 4 17 4C16.4474 4 15.9127 4.17471 15.4911 4.49302L3.82444 13.3089C3.56611 13.504 3.35854 13.7468 3.21617 14.0205C3.0738 14.2942 3.00004 14.5923 3 14.8939V27.9218C3 28.4729 3.24583 29.0015 3.68342 29.3913C4.121 29.781 4.71449 30 5.33333 30H12.7222C13.0316 30 13.3284 29.8905 13.5472 29.6956C13.766 29.5008 13.8889 29.2365 13.8889 28.9609V23.4126C13.8889 21.6944 15.2818 20.3015 17 20.3015V20.3015C18.7182 20.3015 20.1111 21.6944 20.1111 23.4126V28.9609C20.1111 29.5345 20.6338 30 21.2778 30H28.6667C29.2855 30 29.879 29.781 30.3166 29.3913C30.7542 29.0015 31 28.4729 31 27.9218V14.8939C31 14.5923 30.9262 14.2942 30.7838 14.0205C30.6415 13.7468 30.4339 13.504 30.1756 13.3089L18.5089 4.49302Z" fill="white"/>
</svg>
