<svg width="34" height="34" viewBox="0 0 34 34" fill="none" xmlns="http://www.w3.org/2000/svg">
<path d="M8.3 24.3333V19.8111C8.3 19.3249 8.11826 18.8586 7.79476 18.5147C7.47126 18.1709 7.0325 17.9778 6.575 17.9778H6V16.0222H6.575C6.80153 16.0222 7.02584 15.9748 7.23513 15.8827C7.44442 15.7905 7.63458 15.6555 7.79476 15.4853C7.95494 15.315 8.082 15.1129 8.16869 14.8905C8.25538 14.668 8.3 14.4296 8.3 14.1889V9.66667C8.3 8.69421 8.66348 7.76158 9.31048 7.07394C9.95748 6.38631 10.835 6 11.75 6H12.9V8.44444H11.75C11.445 8.44444 11.1525 8.57321 10.9368 8.80243C10.7212 9.03164 10.6 9.34251 10.6 9.66667V14.6778C10.6001 15.1923 10.4474 15.6938 10.1637 16.1108C9.88002 16.5278 9.47973 16.8389 9.0199 17C9.47973 17.1611 9.88002 17.4722 10.1637 17.8892C10.4474 18.3062 10.6001 18.8077 10.6 19.3222V24.3333C10.6 24.6575 10.7212 24.9684 10.9368 25.1976C11.1525 25.4268 11.445 25.5556 11.75 25.5556H12.9V28H11.75C10.835 28 9.95748 27.6137 9.31048 26.9261C8.66348 26.2384 8.3 25.3058 8.3 24.3333ZM26.7 19.8111V24.3333C26.7 25.3058 26.3365 26.2384 25.6895 26.9261C25.0425 27.6137 24.165 28 23.25 28H22.1V25.5556H23.25C23.555 25.5556 23.8475 25.4268 24.0632 25.1976C24.2788 24.9684 24.4 24.6575 24.4 24.3333V19.3222C24.3999 18.8077 24.5526 18.3062 24.8363 17.8892C25.12 17.4722 25.5203 17.1611 25.9801 17C25.5203 16.8389 25.12 16.5278 24.8363 16.1108C24.5526 15.6938 24.3999 15.1923 24.4 14.6778V9.66667C24.4 9.34251 24.2788 9.03164 24.0632 8.80243C23.8475 8.57321 23.555 8.44444 23.25 8.44444H22.1V6H23.25C24.165 6 25.0425 6.38631 25.6895 7.07394C26.3365 7.76158 26.7 8.69421 26.7 9.66667V14.1889C26.7 14.6751 26.8817 15.1414 27.2052 15.4853C27.5287 15.8291 27.9675 16.0222 28.425 16.0222H29V17.9778H28.425C27.9675 17.9778 27.5287 18.1709 27.2052 18.5147C26.8817 18.8586 26.7 19.3249 26.7 19.8111Z" fill="white"/>
</svg>
