<svg width="18" height="18" viewBox="0 0 18 18" fill="none" xmlns="http://www.w3.org/2000/svg">
<path d="M8.99997 0C13.9705 0 18 4.02944 18 9.00004C18 13.9706 13.9705 18 8.99997 18C4.02943 18 0 13.9706 0 9.00004C0 4.02944 4.02943 0 8.99997 0ZM8.99997 1.34979C4.7749 1.34979 1.34979 4.77492 1.34979 9.00004C1.34979 13.2252 4.7749 16.6502 8.99997 16.6502C13.2251 16.6502 16.6502 13.2252 16.6502 9.00004C16.6502 4.77492 13.2251 1.34979 8.99997 1.34979ZM5.81605 11.5046C6.58016 12.4744 7.74188 13.0508 8.99997 13.0508C10.2564 13.0508 11.4167 12.4759 12.181 11.5084C12.412 11.2159 12.8363 11.166 13.1289 11.3971C13.4213 11.6281 13.4712 12.0525 13.2402 12.345C12.2226 13.6333 10.6739 14.4006 8.99997 14.4006C7.32389 14.4006 5.7732 13.6313 4.75582 12.34C4.52514 12.0472 4.57548 11.6229 4.86826 11.3921C5.16103 11.1615 5.58538 11.2118 5.81605 11.5046ZM6.30081 6.07604C6.92169 6.07604 7.42503 6.57935 7.42503 7.20022C7.42503 7.82113 6.92169 8.32442 6.30081 8.32442C5.67995 8.32442 5.17663 7.82113 5.17663 7.20022C5.17663 6.57935 5.67995 6.07604 6.30081 6.07604ZM11.7 6.07604C12.3208 6.07604 12.8242 6.57935 12.8242 7.20022C12.8242 7.82113 12.3208 8.32442 11.7 8.32442C11.0791 8.32442 10.5758 7.82113 10.5758 7.20022C10.5758 6.57935 11.0791 6.07604 11.7 6.07604Z" fill="white"/>
</svg>
