<svg width="212" height="235" viewBox="0 0 212 235" fill="none" xmlns="http://www.w3.org/2000/svg">
<path d="M132.128 103.534C131.9 119.929 118.048 132.861 101.702 132.861H71.2398C68.083 132.864 65.0567 134.124 62.8257 136.364C60.5947 138.604 59.3415 141.641 59.3415 144.807V234.988C43.6032 234.988 28.5094 228.717 17.3807 217.555C6.25203 206.393 0 191.254 0 175.468V74.4655C0.0123371 74.1657 0.13946 73.8821 0.354928 73.6738C0.570395 73.4655 0.85762 73.3486 1.15686 73.3473H102.457C106.388 73.3485 110.28 74.1331 113.906 75.6556C117.533 77.178 120.821 79.408 123.581 82.2159C126.341 85.0239 128.518 88.3538 129.984 92.0124C131.45 95.671 132.177 99.5852 132.122 103.528L132.128 103.534Z" fill="#070707"/>
<path d="M1.15686 73.3473C0.849491 73.3489 0.555253 73.4725 0.33847 73.691C0.121687 73.9096 -4.08341e-06 74.2053 1.02767e-10 74.5136L1.02767e-10 73.3473H1.15686Z" fill="#070707"/>
<path d="M110.201 0V39.5354C110.198 42.4765 111.211 45.3277 113.07 47.6028C114.928 49.8778 117.516 51.4356 120.391 52.0105C132.182 54.359 142.795 60.736 150.422 70.0547C158.049 79.3733 162.218 91.0566 162.218 103.113C162.218 115.17 158.049 126.853 150.422 136.172C142.795 145.49 132.182 151.867 120.391 154.216C117.516 154.789 114.929 156.346 113.07 158.62C111.212 160.894 110.198 163.744 110.201 166.685V206.214C137.273 205.921 163.137 194.929 182.177 175.624C201.217 156.32 211.896 130.262 211.896 103.107C211.896 75.9527 201.217 49.8943 182.177 30.5899C163.137 11.2854 137.273 0.293227 110.201 0Z" fill="#070707"/>
</svg>