<svg width="16" height="16" viewBox="0 0 16 16" fill="none" xmlns="http://www.w3.org/2000/svg">
<g clip-path="url(#clip0_66_38)">
<path d="M14.4884 12.6453C14.4884 12.9712 14.3589 13.2838 14.1284 13.5142C13.8979 13.7447 13.5854 13.8742 13.2594 13.8742H3.42813C3.1022 13.8742 2.78962 13.7447 2.55916 13.5142C2.32869 13.2838 2.19922 12.9712 2.19922 12.6453V4.04288C2.19922 3.71695 2.32869 3.40437 2.55916 3.17391C2.78962 2.94344 3.1022 2.81396 3.42813 2.81396H6.50041L7.72933 4.65733H13.2594C13.5854 4.65733 13.8979 4.78681 14.1284 5.01727C14.3589 5.24774 14.4884 5.56032 14.4884 5.88625V12.6453Z" stroke="black" stroke-width="1.55231" stroke-linecap="round" stroke-linejoin="round"/>
<path d="M6.5 9.57324H10.1867" stroke="black" stroke-width="1.55231" stroke-linecap="round" stroke-linejoin="round"/>
</g>
<defs>
<clipPath id="clip0_66_38">
<rect width="14.747" height="14.747" fill="white" transform="translate(0.970703 0.970703)"/>
</clipPath>
</defs>
</svg>
