<svg width="28" height="28" viewBox="0 0 28 28" fill="none" xmlns="http://www.w3.org/2000/svg">
<path d="M6.98557 4.07471C5.44239 4.07471 4.19141 5.29094 4.19141 6.79125V9.5078C4.19141 11.0081 5.44239 12.2243 6.98557 12.2243H9.77973C11.3229 12.2243 12.5739 11.0081 12.5739 9.5078V6.79125C12.5739 5.29094 11.3229 4.07471 9.77973 4.07471H6.98557Z" fill="white"/>
<path d="M6.98557 14.9409C5.44239 14.9409 4.19141 16.1571 4.19141 17.6575V20.374C4.19141 21.8744 5.44239 23.0906 6.98557 23.0906H9.77973C11.3229 23.0906 12.5739 21.8744 12.5739 20.374V17.6575C12.5739 16.1571 11.3229 14.9409 9.77973 14.9409H6.98557Z" fill="white"/>
<path d="M15.3672 6.79125C15.3672 5.29094 16.6181 4.07471 18.1613 4.07471H20.9555C22.4987 4.07471 23.7497 5.29094 23.7497 6.79125V9.5078C23.7497 11.0081 22.4987 12.2243 20.9555 12.2243H18.1613C16.6181 12.2243 15.3672 11.0081 15.3672 9.5078V6.79125Z" fill="white"/>
<path d="M15.3672 17.6575C15.3672 16.1571 16.6181 14.9409 18.1613 14.9409H20.9555C22.4987 14.9409 23.7497 16.1571 23.7497 17.6575V20.374C23.7497 21.8744 22.4987 23.0906 20.9555 23.0906H18.1613C16.6181 23.0906 15.3672 21.8744 15.3672 20.374V17.6575Z" fill="white"/>
</svg>
