<svg width="170" height="153" viewBox="0 0 170 153" fill="none" xmlns="http://www.w3.org/2000/svg">
<path d="M127.373 84.5899C136.338 84.5899 144.935 88.1422 151.274 94.4652C157.613 100.788 161.175 109.364 161.175 118.306C161.175 127.249 157.613 135.824 151.274 142.147C144.935 148.471 136.338 152.023 127.373 152.023C112.076 152.023 98.4938 141.248 94.6523 126.667C93.463 122.153 89.787 118.306 85.1191 118.306V118.306C80.4524 118.306 76.7731 122.147 75.6114 126.666C74.3015 131.762 71.8039 136.521 68.2732 140.534C62.8636 146.682 55.3979 150.659 47.2669 151.723C39.136 152.787 30.8944 150.867 24.0776 146.32C17.2609 141.772 12.3339 134.908 10.2148 127.006C8.09559 119.104 8.92872 110.703 12.5589 103.368C16.1891 96.0331 22.3688 90.2648 29.9466 87.1377C37.5244 84.0107 45.9835 83.7381 53.7478 86.3709C57.3658 87.5977 60.718 89.4164 63.681 91.7259C70.013 96.6614 77.0936 101.448 85.1219 101.448V101.448C93.1489 101.448 100.228 96.6626 106.561 91.7297C107.796 90.7678 109.1 89.8895 110.466 89.1029C115.607 86.1434 121.438 84.5869 127.373 84.5899ZM9.04533 76.1608C4.39006 76.1608 0.616211 72.387 0.616211 67.7317V67.7317C0.616211 63.0764 4.40071 59.3026 9.05598 59.3026V59.3026C13.723 59.3026 17.5171 55.5192 17.5171 50.8521V34.0153C17.5171 25.0731 21.0784 16.4972 27.4174 10.1741C33.7565 3.85108 42.3541 0.298828 51.3189 0.298828H118.922C127.887 0.298828 136.485 3.85108 142.824 10.1741C149.163 16.4972 152.724 25.0731 152.724 34.0153V50.8522C152.724 55.5192 156.518 59.3026 161.185 59.3026V59.3026C165.841 59.3026 169.625 63.0764 169.625 67.7317V67.7317C169.625 72.387 165.851 76.1608 161.196 76.1608H9.04533Z" fill="white"/>
</svg>
