<svg width="8" height="9" viewBox="0 0 8 9" fill="none" xmlns="http://www.w3.org/2000/svg">
<path d="M5.94498 6.03141C5.60581 6.37054 4.89663 7.07972 4.40861 7.56774C4.12578 7.85056 3.66774 7.85071 3.38492 7.56788C2.90542 7.08837 2.20994 6.39291 1.84842 6.03141C0.717192 4.90017 0.717192 3.06608 1.84842 1.93485C2.97965 0.803618 4.81375 0.803618 5.94498 1.93485C7.07617 3.06608 7.07617 4.90017 5.94498 6.03141Z" stroke="#333333" stroke-width="0.54313" stroke-linecap="round" stroke-linejoin="round"/>
<path d="M4.98307 3.98274C4.98307 4.58268 4.49675 5.069 3.89681 5.069C3.29687 5.069 2.81055 4.58268 2.81055 3.98274C2.81055 3.38282 3.29687 2.89648 3.89681 2.89648C4.49675 2.89648 4.98307 3.38282 4.98307 3.98274Z" stroke="#333333" stroke-width="0.54313" stroke-linecap="round" stroke-linejoin="round"/>
</svg>
