<svg width="59" height="59" viewBox="0 0 59 59" fill="none" xmlns="http://www.w3.org/2000/svg">
<path d="M21.8891 34.6H35.578V27.7859C35.578 23.9892 32.5137 20.9111 28.7336 20.9111C24.9535 20.9111 21.8891 23.9892 21.8891 27.7859V34.6ZM28.7336 18.9556C33.5931 18.9556 37.5336 22.9087 37.5336 27.7859V36.5556H19.9336V27.7859C19.9336 22.9087 23.874 18.9556 28.7336 18.9556ZM26.2891 37.5334H31.178C31.178 38.1817 30.9205 38.8034 30.4621 39.2618C30.0037 39.7203 29.3819 39.9778 28.7336 39.9778C28.0853 39.9778 27.4635 39.7203 27.0051 39.2618C26.5467 38.8034 26.2891 38.1817 26.2891 37.5334Z" fill="white"/>
</svg>
