<svg width="24" height="24" viewBox="0 0 24 24" fill="none" xmlns="http://www.w3.org/2000/svg">
<path d="M11.1689 2.5127C15.98 2.5127 19.8847 6.41737 19.8847 11.2285C19.8847 16.0396 15.98 19.9443 11.1689 19.9443C6.3578 19.9443 2.45312 16.0396 2.45312 11.2285C2.45312 6.41737 6.3578 2.5127 11.1689 2.5127ZM11.1689 18.0074C14.9138 18.0074 17.9479 14.9734 17.9479 11.2285C17.9479 7.48263 14.9138 4.44954 11.1689 4.44954C7.42306 4.44954 4.38997 7.48263 4.38997 11.2285C4.38997 14.9734 7.42306 18.0074 11.1689 18.0074ZM18.7013 18.7609C19.0795 18.3827 19.6925 18.3827 20.0708 18.7607L21.4404 20.1299C21.8188 20.5082 21.8189 21.1217 21.4405 21.5C21.0621 21.8784 20.4486 21.8784 20.0703 21.4999L18.7012 20.1303C18.3231 19.7521 18.3231 19.139 18.7013 18.7609Z" fill="black"/>
</svg>
