<svg width="25" height="25" viewBox="0 0 25 25" fill="none" xmlns="http://www.w3.org/2000/svg">
<g clip-path="url(#clip0_147_210)">
<path d="M3.89687 1.46684L23.1281 12.0439C23.2098 12.0889 23.2779 12.1549 23.3253 12.2352C23.3727 12.3154 23.3978 12.407 23.3978 12.5002C23.3978 12.5934 23.3727 12.6849 23.3253 12.7652C23.2779 12.8454 23.2098 12.9115 23.1281 12.9564L3.89687 23.5335C3.81758 23.5771 3.72828 23.5993 3.63778 23.5979C3.54729 23.5965 3.45872 23.5716 3.38081 23.5255C3.3029 23.4795 3.23833 23.4139 3.19347 23.3353C3.14861 23.2567 3.12502 23.1678 3.125 23.0773V1.92309C3.12502 1.83258 3.14861 1.74364 3.19347 1.66504C3.23833 1.58643 3.3029 1.52087 3.38081 1.47481C3.45872 1.42876 3.54729 1.4038 3.63778 1.40241C3.72828 1.40101 3.81758 1.42321 3.89687 1.46684ZM5.20833 13.5418V20.4345L19.6354 12.5002L5.20833 4.5658V11.4585H10.4167V13.5418H5.20833Z" fill="white"/>
</g>
<defs>
<clipPath id="clip0_147_210">
<rect width="25" height="25" fill="white"/>
</clipPath>
</defs>
</svg>
