<svg width="19" height="19" viewBox="0 0 19 19" fill="none" xmlns="http://www.w3.org/2000/svg">
<g clip-path="url(#clip0_66_343)">
<path d="M0.0916667 0.0916667H18.2417V18.2417H0.0916667V0.0916667Z" stroke="#131313" stroke-width="0.183333"/>
<path d="M9.45651 9.35769V9.40989L9.5014 9.43653L12.8591 11.4288L12.3819 12.2114L8.49401 9.87871V5.43894H9.45651V9.35769ZM1.61901 9.16672C1.61901 5.00056 4.99267 1.6195 9.15859 1.6195C13.3323 1.6195 16.7135 5.00074 16.7135 9.16672C16.7135 13.3327 13.3323 16.7139 9.15859 16.7139C4.99267 16.7139 1.61901 13.3329 1.61901 9.16672ZM2.96345 9.16672C2.96345 12.5937 5.73922 15.3695 9.16623 15.3695C12.5932 15.3695 15.369 12.5937 15.369 9.16672C15.369 5.73971 12.5932 2.96394 9.16623 2.96394C5.73922 2.96394 2.96345 5.73971 2.96345 9.16672Z" fill="white" stroke="#131313" stroke-width="0.183333"/>
</g>
<defs>
<clipPath id="clip0_66_343">
<rect width="18.3333" height="18.3333" fill="white"/>
</clipPath>
</defs>
</svg>
